<svg width="646" height="214" viewBox="0 0 646 214" fill="none" xmlns="http://www.w3.org/2000/svg">
<g clip-path="url(#clip0_9_19)">
<path fill-rule="evenodd" clip-rule="evenodd" d="M283.441 42.5881V138.142H299.307V99.1945H322.792C331.87 99.1945 339.157 96.6479 344.653 91.5546C350.15 86.462 352.898 79.4489 352.898 70.5154C352.898 61.1646 350.192 54.1932 344.778 49.6013C339.448 44.9258 332.12 42.5881 322.792 42.5881H283.441ZM333.035 81.6615C330.204 84.0824 326.082 85.2935 320.668 85.2935H299.307V56.8649H320.668C325.998 56.8649 330.08 58.0755 332.911 60.4967C335.826 62.9179 337.283 66.4245 337.283 71.0164C337.283 75.6087 335.868 79.1568 333.035 81.6615ZM401.405 138.142C391.591 138.142 383.345 135.965 376.668 131.61C369.992 127.255 365.004 121.489 361.706 114.311C358.488 107.053 356.879 99.11 356.879 90.4806C356.879 81.8518 358.488 73.9484 361.706 66.7709C365.004 59.5128 369.992 53.7063 376.668 49.3515C383.345 44.9966 391.551 42.8192 401.284 42.8192C412.386 42.8192 421.396 45.4401 428.314 50.6821C435.313 55.8434 439.939 62.9403 442.191 71.9727H425.177C423.487 67.0531 420.592 63.2628 416.489 60.6015C412.466 57.8595 407.359 56.4886 401.164 56.4886C394.97 56.4886 389.741 57.9805 385.477 60.9644C381.214 63.9483 377.996 68.0206 375.824 73.1825C373.732 78.2631 372.686 83.9486 372.686 90.239C372.686 96.771 373.813 102.618 376.065 107.779C378.318 112.941 381.657 117.013 386.08 119.997C390.505 122.981 395.895 124.473 402.25 124.473C408.122 124.473 413.19 123.182 417.454 120.602C421.717 118.021 424.735 114.513 426.504 110.078C427.228 108.223 427.751 106.045 428.073 103.545C428.233 102.416 428.595 99.9166 428.595 99.9166H419.867H407.197V86.9724H443.277V138.412H429.279V122.658H427.349C427.349 126.852 425.217 130.32 420.953 133.062C418.54 134.675 415.604 135.924 412.145 136.812C408.766 137.699 405.187 138.142 401.405 138.142ZM456.489 134.616C459.237 137.121 463.317 138.373 468.731 138.373H477.85V125.975H473.728C471.23 125.975 469.481 125.39 468.481 124.222C467.565 123.053 467.107 121.091 467.107 118.336V42.8192H452.366V122.218C452.366 127.979 453.74 132.111 456.489 134.616ZM484.5 138.373V69.4513H499.013V138.373H484.5ZM491.757 61.6595C489.133 61.6595 486.879 60.8376 484.993 59.1937C483.189 57.4675 482.287 54.7875 482.287 52.2394C482.287 49.6913 483.189 47.0523 484.993 45.4083C486.879 43.6823 489.133 42.8192 491.757 42.8192C494.463 42.8192 496.717 43.6823 498.521 45.4083C500.325 47.0523 501.227 49.6913 501.227 52.2394C501.227 54.7875 500.325 57.4675 498.521 59.1937C496.717 60.8376 494.463 61.6595 491.757 61.6595ZM520.167 134.616C522.915 137.121 526.996 138.373 532.41 138.373H544.902V125.975H537.531C534.7 125.975 532.867 125.349 532.035 124.097C531.202 122.76 530.785 120.757 530.785 118.085V80.6401H545.026V68.3673H530.785V42.8192H516.044V68.3673H505.551V80.6401H516.044V122.218C516.044 127.979 517.419 132.111 520.167 134.616ZM579.797 64.6153C586.244 64.6153 592.043 65.9949 597.035 68.72L597.041 68.702C602.045 71.4383 606.037 75.445 608.911 80.6228C611.774 85.7832 613.313 91.9086 613.5 98.8299C613.5 99.8979 613.415 101.502 613.227 103.759L613.171 104.424H559.249V104.672C559.419 111.362 561.464 116.795 565.314 120.795C569.154 124.785 574.26 126.81 580.484 126.81C585.307 126.81 589.458 125.575 592.815 123.133C596.161 120.709 598.432 117.274 599.563 112.939L599.704 112.402H612.427L612.263 113.262C610.876 120.604 607.349 126.689 601.794 131.348C596.234 136.012 589.339 138.373 581.303 138.373C574.3 138.373 568.081 136.827 562.821 133.778C557.545 130.724 553.393 126.337 550.479 120.743C547.572 115.166 546.1 108.776 546.1 101.492C546.1 94.2064 547.526 87.7057 550.337 82.1819C553.155 76.6401 557.17 72.2755 562.259 69.2164C567.348 66.1622 573.351 64.6153 579.797 64.6153ZM566.496 81.1252C562.844 84.3233 560.668 88.5082 560.009 93.5716H600.409C599.767 88.1622 597.654 83.8841 594.127 80.8477C590.413 77.6556 585.636 76.0339 579.934 76.0339C574.868 76.0339 570.341 77.7481 566.496 81.1252Z" fill="#F5F5F5"/>
<path d="M91.4078 166.923L80.1631 160.641L52.9998 208.041L64.2445 214.322L91.4078 166.923Z" fill="#C5F74F"/>
<path d="M136.152 139.147L124.907 132.866L97.7439 180.266L108.989 186.547L136.152 139.147Z" fill="#C5F74F"/>
<path d="M205 139.148L193.755 132.867L166.592 180.267L177.837 186.548L205 139.148Z" fill="#C5F74F"/>
<path d="M160.242 166.923L148.998 160.641L121.834 208.041L133.079 214.322L160.242 166.923Z" fill="#C5F74F"/>
<path fill-rule="evenodd" clip-rule="evenodd" d="M230.206 58.5927V143.715C230.206 146.657 227.819 149.042 224.876 149.039L203.567 149.014C200.749 149.01 198.446 146.819 198.261 144.049C198.263 143.944 198.265 143.839 198.265 143.733L198.264 111.793C198.264 102.973 191.104 95.823 182.283 95.823C173.735 95.823 166.747 89.1067 166.324 80.6629V31.9476L203.608 31.975C218.3 31.9858 230.206 43.8998 230.206 58.5927ZM123.735 31.9401V69.2213C123.735 78.041 130.885 85.1919 139.706 85.1919H155.676V84.1212C155.676 96.4638 165.682 106.469 178.025 106.469C183.314 106.469 187.602 110.757 187.602 116.047V143.69C187.602 143.817 187.604 143.944 187.607 144.07C187.433 146.853 185.12 149.056 182.293 149.056L155.494 149.055L155.676 111.817C155.691 108.877 153.319 106.482 150.379 106.467C147.439 106.453 145.044 108.825 145.029 111.765L144.847 149.032V149.054L113.022 149.052V111.791C113.022 108.851 110.638 106.467 107.698 106.467C104.758 106.467 102.375 108.851 102.375 111.791V149.051L75.8232 149.05C72.8832 149.049 70.5 146.666 70.5 143.726V58.5576C70.5 43.8571 82.4172 31.9399 97.1178 31.9399L123.735 31.9401ZM206.277 64.0257C206.277 59.6156 202.701 56.0404 198.291 56.0404C193.881 56.0404 190.306 59.6156 190.306 64.0257C190.306 68.4361 193.881 72.0108 198.291 72.0108C202.701 72.0108 206.277 68.4361 206.277 64.0257Z" fill="#F6F95C"/>
<path d="M284 145.722H291.46C297.97 145.722 301.37 149.654 301.37 157.179C301.37 164.977 298.018 168.973 291.46 168.973H284V145.722ZM288.576 149.67V165.026H290.832C294.86 165.026 296.697 162.609 296.697 157.259C296.697 152.135 294.796 149.67 290.832 149.67H288.576Z" fill="#F3F4F6"/>
<path d="M313.961 161.094V165.735H319.117V168.973H306.355V165.735H309.739V154.455H306.033V151.201H313.993V155.761H314.686C315.459 152.232 317.28 150.733 320.631 150.733C321.63 150.733 322.533 150.862 323.161 151.104V155.889C322.355 155.583 321.195 155.374 320.196 155.374C316.007 155.374 313.961 157.275 313.961 161.094Z" fill="#F3F4F6"/>
<path d="M336.606 147.575C334.801 147.575 333.593 146.463 333.593 144.788C333.593 143.112 334.801 142 336.606 142C338.41 142 339.635 143.112 339.635 144.788C339.635 146.463 338.41 147.575 336.606 147.575ZM344.195 168.973H328.839V165.461H334.543V154.729H329.129V151.201H338.829V165.461H344.195V168.973Z" fill="#F3F4F6"/>
<path d="M351.033 168.973V166.347L360.282 155.035V154.761H351.178V151.2H365.567V154.165L356.834 165.138V165.412H365.761V168.973H351.033Z" fill="#F3F4F6"/>
<path d="M373.083 168.973V166.347L382.331 155.035V154.761H373.228V151.2H387.616V154.165L378.883 165.138V165.412H387.81V168.973H373.083Z" fill="#F3F4F6"/>
<path d="M410.342 168.973H394.987V165.461H400.626V147.946H395.277V144.433H405.041V165.461H410.342V168.973Z" fill="#F3F4F6"/>
<path d="M428.395 163.978H432.553C432.182 167.12 429.04 169.36 424.915 169.36C419.743 169.36 416.778 166.46 416.778 161.416V158.564C416.778 153.907 420 150.83 424.834 150.83C429.539 150.83 432.553 153.924 432.553 158.693V161.142H421.096V162.109C421.096 164.429 422.595 165.944 424.899 165.944C426.671 165.944 428.073 165.138 428.395 163.978ZM424.754 154.246C422.466 154.246 421.096 155.777 421.096 158.322H428.299C428.299 155.777 426.977 154.246 424.754 154.246Z" fill="#F3F4F6"/>
</g>
<defs>
<clipPath id="clip0_9_19">
<rect width="646" height="214" fill="white"/>
</clipPath>
</defs>
</svg>
