<svg width="204" height="202" viewBox="0 0 204 202" fill="none" xmlns="http://www.w3.org/2000/svg">
<g clip-path="url(#clip0_10_21)">
<path d="M48.4078 154.923L37.1631 148.641L9.9998 196.041L21.2445 202.322L48.4078 154.923Z" fill="#C5F74F"/>
<path d="M93.152 127.147L81.9072 120.866L54.7439 168.266L65.9887 174.547L93.152 127.147Z" fill="#C5F74F"/>
<path d="M162 127.148L150.755 120.867L123.592 168.267L134.837 174.548L162 127.148Z" fill="#C5F74F"/>
<path d="M117.242 154.923L105.998 148.641L78.8343 196.041L90.079 202.322L117.242 154.923Z" fill="#C5F74F"/>
<path fill-rule="evenodd" clip-rule="evenodd" d="M187.206 46.5927V131.715C187.206 134.657 184.819 137.042 181.876 137.039L160.567 137.014C157.749 137.01 155.446 134.819 155.261 132.049C155.263 131.944 155.265 131.839 155.265 131.733L155.264 99.7929C155.264 90.9731 148.104 83.823 139.283 83.823C130.735 83.823 123.747 77.1067 123.324 68.6629V19.9476L160.608 19.975C175.3 19.9858 187.206 31.8998 187.206 46.5927ZM80.7353 19.9401V57.2213C80.7353 66.041 87.8855 73.1919 96.7059 73.1919H112.676V72.1212C112.676 84.4638 122.682 94.4694 135.025 94.4694C140.314 94.4694 144.602 98.7575 144.602 104.047V131.69C144.602 131.817 144.604 131.944 144.607 132.07C144.433 134.853 142.12 137.056 139.293 137.056L112.494 137.055L112.676 99.8168C112.691 96.8769 110.319 94.482 107.379 94.4674C104.439 94.4527 102.044 96.825 102.029 99.7649L101.847 137.032V137.054L70.0217 137.052V99.7909C70.0217 96.851 67.6381 94.4674 64.6982 94.4674C61.758 94.4674 59.3746 96.851 59.3746 99.7909V137.051L32.8232 137.05C29.8832 137.049 27.5 134.666 27.5 131.726V46.5576C27.5 31.8571 39.4172 19.9399 54.1178 19.9399L80.7353 19.9401ZM163.277 52.0257C163.277 47.6156 159.701 44.0404 155.291 44.0404C150.881 44.0404 147.306 47.6156 147.306 52.0257C147.306 56.4361 150.881 60.0108 155.291 60.0108C159.701 60.0108 163.277 56.4361 163.277 52.0257Z" fill="#F6F95C"/>
</g>
<defs>
<clipPath id="clip0_10_21">
<rect width="204" height="202" fill="white"/>
</clipPath>
</defs>
</svg>
